<svg xmlns="http://www.w3.org/2000/svg" width="613" height="859" viewBox="0 0 613 859" version="1.1">
	<path d="M 415.115 238.053 C 413.269 239.590, 411.912 239.892, 409.115 239.387 L 405.500 238.734 407.760 241.192 C 409.566 243.156, 409.885 244.325, 409.348 247.008 L 408.677 250.366 411.736 248.188 C 414.072 246.524, 415.577 246.165, 418.101 246.670 L 421.406 247.331 419.282 244.632 C 417.594 242.485, 417.333 241.325, 418.010 238.966 C 419.001 235.510, 418.397 235.319, 415.115 238.053 M 436.914 252.156 C 433.633 254.835, 432.975 255.005, 429.172 254.150 C 424.722 253.150, 424.707 253.211, 428.234 258.060 C 429.780 260.187, 429.937 261.325, 429.160 264.785 C 428.310 268.564, 428.383 268.865, 429.944 268.030 C 430.890 267.524, 432.277 266.372, 433.025 265.470 C 434.078 264.201, 435.359 263.977, 438.693 264.477 C 441.062 264.832, 443 264.827, 443 264.466 C 443 264.104, 442.052 262.477, 440.892 260.849 C 439.047 258.258, 438.916 257.371, 439.841 253.727 C 440.422 251.438, 440.808 249.489, 440.699 249.396 C 440.590 249.304, 438.886 250.546, 436.914 252.156 M 409.500 265.647 C 407.008 267.697, 405.774 268.023, 402.209 267.571 L 397.919 267.027 400.324 270.264 C 402.260 272.868, 402.567 274.076, 401.898 276.450 C 400.832 280.231, 401.148 280.458, 404.171 278.080 C 405.533 277.009, 408.571 275.990, 410.923 275.816 L 415.198 275.500 413.131 272.883 C 411.414 270.709, 411.225 269.703, 412.015 266.949 C 412.538 265.125, 412.861 263.530, 412.733 263.406 C 412.605 263.281, 411.150 264.290, 409.500 265.647 M 428.448 283.088 C 433.571 287.587, 436.364 293.399, 436.399 299.639 C 436.426 304.386, 436.583 304.719, 438.464 304.011 C 440.180 303.366, 440.496 302.372, 440.478 297.684 C 440.458 292.856, 439.930 291.356, 436.469 286.311 C 432.910 281.125, 432.068 280.466, 428.630 280.183 L 424.778 279.866 428.448 283.088 M 437.136 282.596 C 440.975 286.825, 442.703 290.775, 443.497 297.131 C 444.123 302.140, 444.423 302.702, 446.225 302.231 C 448.031 301.759, 448.190 301.126, 447.699 296.373 C 447.042 290.007, 442.486 281, 439.923 281 C 438.955 281, 437.339 280.706, 436.332 280.346 C 434.927 279.844, 435.114 280.368, 437.136 282.596 M 447.610 286.750 C 449.137 289.866, 449.948 293.329, 449.969 296.820 C 449.998 301.757, 450.162 302.116, 452.250 301.820 C 454.268 301.533, 454.487 300.974, 454.373 296.387 C 454.176 288.493, 452.441 284.349, 448.800 283.080 C 447.096 282.486, 445.607 282, 445.492 282 C 445.376 282, 446.329 284.137, 447.610 286.750 M 455.550 286.082 C 455.918 286.677, 456.507 290.384, 456.859 294.320 C 457.351 299.808, 457.880 301.549, 459.129 301.788 C 461.302 302.204, 462.234 298.243, 461.415 292.068 C 460.906 288.235, 460.260 286.984, 458.338 286.108 C 455.291 284.720, 454.705 284.714, 455.550 286.082 M 463.839 296.328 C 463.564 301.604, 463.820 303.037, 465.192 303.891 C 467.044 305.044, 467.314 304.547, 468.423 297.934 C 468.915 295.003, 468.591 293.964, 466.600 292.094 L 464.179 289.819 463.839 296.328 M 185.861 324.751 C 173.562 339.465, 162.882 352.290, 162.128 353.251 C 160.869 354.855, 161.095 355, 164.860 355 L 168.966 355 189.714 329.982 C 201.126 316.222, 210.978 305.161, 211.609 305.403 C 212.239 305.645, 224.510 315.181, 238.877 326.594 L 265 347.344 265 393.672 L 265 440 255.500 440 L 246 440 246 399.470 L 246 358.940 233.265 359.220 L 220.531 359.500 210.121 390.305 C 204.395 407.248, 199.368 420.748, 198.948 420.305 C 198.529 419.862, 193.484 406, 187.737 389.500 L 177.289 359.500 169.144 359.210 L 161 358.919 161 402.960 L 161 447 163.987 447 L 166.974 447 167.237 412.750 L 167.500 378.500 173.189 395 C 192.058 449.722, 191.030 447.136, 193.763 446.804 C 196.109 446.519, 196.987 444.376, 207.899 412.317 C 214.298 393.516, 219.863 377.804, 220.266 377.400 C 220.670 376.997, 221 392.498, 221 411.846 L 221 447.026 255.250 446.763 L 289.500 446.500 289.500 397.058 L 289.500 347.616 259.852 323.462 L 230.204 299.308 223.352 298.661 C 219.583 298.305, 214.637 298.011, 212.361 298.007 L 208.222 298 185.861 324.751 M 364.500 299.047 C 338.369 303.008, 314.483 322.720, 306.394 347 C 305.145 350.749, 304.592 355.206, 304.657 361 C 304.812 374.841, 309.776 385.769, 320.528 395.938 C 326.581 401.662, 332.469 404.691, 339.389 405.640 L 343.959 406.266 344.230 426.383 L 344.500 446.500 357.250 446.780 L 370 447.060 370 425.069 L 370 403.077 375.182 401.539 C 378.031 400.692, 380.710 400, 381.135 400 C 381.560 400, 387.890 410.570, 395.204 423.490 L 408.500 446.980 423.250 446.990 C 431.507 446.996, 438 446.597, 438 446.085 C 438 445.582, 430.954 432.892, 422.343 417.886 C 408.005 392.899, 406.843 390.512, 408.548 389.550 C 413.705 386.642, 421.245 378.240, 424.218 372.089 C 425.970 368.465, 429.051 363.025, 431.065 360 C 436.331 352.089, 440.497 343.467, 442.943 335.412 C 445.037 328.518, 445.151 328.375, 449.377 327.244 C 457.209 325.149, 468.746 312.809, 465.984 309.481 C 463.266 306.206, 456.276 304.690, 446.569 305.269 C 441.410 305.577, 436.287 306.311, 435.185 306.901 C 431.259 309.002, 431.178 319.414, 435.049 324.336 C 436.941 326.741, 436.935 326.841, 434.468 334.096 C 433.096 338.127, 431.594 341.806, 431.129 342.271 C 430.664 342.736, 429.755 340.434, 429.110 337.156 C 425.682 319.732, 411.334 305.450, 392.420 300.636 C 384.576 298.640, 371.932 297.920, 364.500 299.047 M 351.105 317.583 C 338.053 321.092, 324.553 332.385, 318.742 344.654 C 315.833 350.797, 315.500 352.425, 315.500 360.500 C 315.500 368.135, 315.900 370.353, 318.135 375.120 C 322.956 385.402, 333.840 395, 340.679 395 L 343.967 395 344.233 368.750 L 344.500 342.500 357.250 342.220 L 370 341.940 370 365.095 L 370 388.250 373.250 387.646 C 379.167 386.545, 396.958 376.891, 402.642 371.696 C 410.578 364.443, 412.488 360.312, 412.440 350.500 C 412.394 340.899, 410.257 335.404, 403.879 328.485 C 395.908 319.837, 384.333 315.997, 366.500 316.083 C 361 316.110, 354.072 316.785, 351.105 317.583 M 436.440 333.250 C 427.431 360.746, 406.056 381.581, 376.500 391.674 C 368.500 394.406, 354.799 397, 348.369 397 C 344.135 397, 344 397.097, 344 400.150 L 344 403.299 352.750 402.676 C 384.125 400.439, 413.569 383.139, 431.039 356.679 C 436.808 347.940, 443.566 331.918, 442.574 329.331 C 442.293 328.599, 441.185 328, 440.112 328 C 438.643 328, 437.735 329.298, 436.440 333.250 M 295.984 465.855 C 287.744 470.242, 283.460 481.688, 283.579 499 C 283.644 508.419, 284.065 511.543, 285.907 516.266 C 288.632 523.253, 292.301 527.810, 296.671 529.636 C 306.853 533.890, 315.750 528.077, 320.604 514 C 323.469 505.689, 323.200 486.628, 320.105 478.734 C 315.006 465.730, 305.627 460.722, 295.984 465.855 M 151.560 495.207 C 147.775 511.868, 144.474 526.513, 144.223 527.750 C 143.799 529.842, 144.115 530, 148.723 530 L 153.680 530 154.931 523 L 156.182 516 163.523 516 C 171.515 516, 171.148 515.714, 172.500 523 C 173.801 530.015, 173.788 530, 178.904 530 L 183.674 530 176.510 497.750 L 169.345 465.500 163.893 465.207 L 158.441 464.913 151.560 495.207 M 189 497.500 L 189 530 201 530 L 213 530 213 524 L 213 518 205.500 518 L 198 518 198 491.500 L 198 465 193.500 465 L 189 465 189 497.500 M 219 497.500 L 219 530 231 530 L 243 530 243 524 L 243 518 235.500 518 L 228 518 228 491.500 L 228 465 223.500 465 L 219 465 219 497.500 M 248 497.500 L 248 530 252.500 530 L 257 530 257 517.500 C 257 505.938, 257.141 505, 258.878 505 C 261.697 505, 263.105 507.233, 267.626 518.875 L 271.753 529.500 276.876 529.802 C 279.694 529.969, 282 529.851, 282 529.541 C 282 527.845, 272.666 506.069, 270.923 503.698 L 268.863 500.896 271.353 498.937 C 276.839 494.622, 279.128 480.848, 275.702 472.772 C 273.129 466.706, 269.204 465.008, 257.750 465.004 L 248 465 248 497.500 M 329 486.316 C 329 508.739, 329.920 516.962, 333.131 523.258 C 338.499 533.779, 353.261 533.554, 358.764 522.867 C 362.123 516.345, 362.988 508.754, 362.994 485.750 L 363 465 358.581 465 L 354.161 465 353.800 488.250 C 353.414 513.115, 352.790 516.513, 348.408 517.613 C 344.901 518.493, 342.888 517.736, 340.606 514.678 C 338.631 512.032, 338.479 510.398, 338.156 488.428 L 337.813 465 333.406 465 L 329 465 329 486.316 M 372 497.500 L 372 530 375.981 530 L 379.962 530 380.231 507.307 L 380.500 484.615 389.662 507.057 L 398.823 529.500 403.412 529.805 L 408 530.110 408 497.555 L 408 465 404 465 L 400 465 400 486.700 C 400 498.635, 399.623 507.972, 399.163 507.450 C 398.702 506.927, 394.562 497.163, 389.963 485.750 L 381.601 465 376.800 465 L 372 465 372 497.500 M 418 497.500 L 418 530 426.750 529.978 C 440.891 529.943, 446.628 526.038, 451.178 513.355 C 452.789 508.863, 453.289 505.055, 453.324 497 C 453.379 484.414, 451.384 476.646, 446.739 471.355 C 442.199 466.185, 438.617 465, 427.532 465 L 418 465 418 497.500 M 257 485 L 257 494 260.345 494 C 264.717 494, 267.101 491.281, 267.746 485.560 C 268.473 479.107, 266.273 476, 260.977 476 L 257 476 257 485 M 300.055 477.267 C 295.516 479.564, 293.590 484.518, 293.170 494.975 C 292.549 510.440, 295.750 518, 302.918 518 C 309.693 518, 312.889 511.628, 312.951 498 C 312.997 487.599, 311.684 482.530, 307.983 478.829 C 304.844 475.690, 303.639 475.453, 300.055 477.267 M 427 497.500 L 427 518 430.923 518 C 439.556 518, 444.688 508.622, 443.782 494.503 C 443.029 482.771, 438.634 477, 430.453 477 L 427 477 427 497.500 M 160.830 491.299 L 158.295 504 163.514 504 L 168.733 504 166.356 492.250 C 165.048 485.788, 163.841 480.072, 163.672 479.549 C 163.504 479.026, 162.225 484.313, 160.830 491.299" stroke="none" fill="#0a0a0a" fill-rule="evenodd"/>
</svg>